<?xml version="1.0" encoding="UTF-8"?>
<svg width="500" height="500" viewBox="0 0 500 500" xmlns="http://www.w3.org/2000/svg">
  <defs>
    <pattern id="education-pattern" x="0" y="0" width="100" height="100" patternUnits="userSpaceOnUse">
      <!-- Book -->
      <path d="M20 30h30c2.2 0 4 1.8 4 4v32c0 2.2-1.8 4-4 4H20c-2.2 0-4-1.8-4-4V34c0-2.2 1.8-4 4-4z" fill="currentColor" opacity="0.1"/>
      
      <!-- Graduation Cap -->
      <path d="M70 20l15 8-15 8-15-8z M70 36v10 M55 28v10l15 8 15-8V28" fill="none" stroke="currentColor" stroke-width="2" opacity="0.1"/>
      
      <!-- Pencil -->
      <path d="M30 70l20-20 5 5-20 20z M25 75l5-5" fill="none" stroke="currentColor" stroke-width="2" opacity="0.1"/>
      
      <!-- Light Bulb -->
      <path d="M80 70c0-8.8-7.2-16-16-16s-16 7.2-16 16c0 4.4 1.8 8.4 4.7 11.3 1.5 1.5 2.3 3.5 2.3 5.7v3h18v-3c0-2.2 0.8-4.2 2.3-5.7 2.9-2.9 4.7-6.9 4.7-11.3z" fill="none" stroke="currentColor" stroke-width="2" opacity="0.1"/>
    </pattern>
  </defs>
  
  <rect width="100%" height="100%" fill="url(#education-pattern)"/>
</svg> 